<svg xmlns="http://www.w3.org/2000/svg" version="1.1" viewBox="-5.0 -10.0 110.0 135.0">
 <path d="m36.312 89.918h27.41c1.7773 0 3.2305-1.2812 3.3008-2.8789l1.2109-5.418c0.015625-0.070313 0.023437-0.14453 0.023437-0.21875 0-2.1094-1.6914-3.582-2.5703-4.207v-28.352c0.007812-0.14062 0.15234-3.5156-2.9375-8.6172-0.90625-1.4922-1.7773-3.1797-2.7422-5.3047l-0.10937-0.23828c-1.8047-3.9766-2.7227-8.2031-2.7227-12.57v-1.1758c0.87891-0.38672 1.4961-1.2617 1.4961-2.2852v-6.1602c0-1.3711-1.1211-2.4922-2.4961-2.4922h-12.316c-1.375 0-2.4961 1.1211-2.4961 2.4961v6.1602c0 1.0195 0.61719 1.8984 1.4961 2.2852v1.1758c0 4.3672-0.91406 8.5938-2.7227 12.57-0.92969 2.043-1.9531 4-3.0469 5.8164-2.957 4.9102-2.75 8.2266-2.7422 8.293v28.406c-0.87891 0.625-2.5703 2.0977-2.5703 4.207 0 0.074219 0.007812 0.14844 0.023437 0.21875l1.2109 5.418c0.070312 1.5898 1.5234 2.8711 3.3008 2.8711zm7.0508-77.422c0-0.27344 0.22266-0.49609 0.49609-0.49609h12.316c0.27344 0 0.49609 0.22266 0.49609 0.49609v6.1602c0 0.27344-0.22266 0.49609-0.49609 0.49609h-12.316c-0.27344 0-0.49609-0.22266-0.49609-0.49609zm-7.5312 66.113c0.31641-0.17578 0.51562-0.51172 0.51562-0.875l-0.003906-29.016c0-0.027344-0.13672-2.8828 2.4609-7.1953 1.1328-1.8828 2.1953-3.9062 3.1562-6.0195 1.9258-4.2344 2.9023-8.7422 2.9023-13.398v-0.96094l10.312 0.007813v0.96094c0 4.6523 0.97656 9.1602 2.9023 13.398l0.10938 0.23828c1 2.1953 1.9062 3.9492 2.8516 5.5156 2.7344 4.5156 2.6523 7.4531 2.6523 7.5273v28.945c0 0.35938 0.19531 0.69531 0.51172 0.87109 0.55859 0.31641 1.9844 1.3984 2.0547 2.6953l-1.207 5.3945c-0.015625 0.070312-0.023437 0.14453-0.023437 0.21875 0 0.54297-0.59766 1.0039-1.3047 1.0039l-27.41-0.003906c-0.70703 0-1.3047-0.46094-1.3047-1.0039 0-0.074218-0.007812-0.14844-0.023437-0.21875l-1.207-5.3945c0.074218-1.293 1.5-2.375 2.0547-2.6914z"/>
<text x="0.0" y="117.5" font-size="5.0" font-weight="bold" font-family="Arbeit Regular, Helvetica, Arial-Unicode, Arial, Sans-serif" fill="#000000">Created by Made x Made</text><text x="0.0" y="122.5" font-size="5.0" font-weight="bold" font-family="Arbeit Regular, Helvetica, Arial-Unicode, Arial, Sans-serif" fill="#000000">from Noun Project</text></svg>